<svg width="756" height="900" viewBox="0 0 756 900" fill="none" xmlns="http://www.w3.org/2000/svg">
<path d="M553.646 -183.222C547.986 -171.506 541.453 -158.632 534.102 -144.824C492.949 -45.8021 481.717 129.503 681.114 263.195C909.867 416.569 558.863 791.401 354.767 959.646C354.767 959.646 -197.654 465.567 77.6448 348.884C279.25 263.435 454.563 4.58237 534.102 -144.824C540.16 -159.402 546.867 -172.327 553.646 -183.222Z" fill="#77D1EE" fill-opacity="0.85"/>
<path d="M533.09 -84.2065C528.531 -74.3669 523.269 -63.5545 517.348 -51.9569C484.203 31.2082 475.156 178.442 635.757 290.725C820.002 419.539 537.292 734.349 372.906 875.653C372.906 875.653 -72.0318 460.691 149.703 362.692C312.083 290.927 453.286 73.5246 517.348 -51.9569C522.228 -64.2008 527.63 -75.056 533.09 -84.2065Z" fill="#55ACEE" fill-opacity="0.6"/>
</svg>
