<svg width="33" height="30" viewBox="0 0 33 30" fill="none" xmlns="http://www.w3.org/2000/svg">
<path fill-rule="evenodd" clip-rule="evenodd" d="M16.2829 0.0544434C7.34068 0.0544434 0.0894775 6.82527 0.0894775 15.1779C0.0894775 21.8598 4.72938 27.5287 11.1635 29.5284C11.9728 29.6684 12.2699 29.2004 12.2699 28.8009C12.2699 28.4403 12.2549 27.249 12.2479 25.9852C7.74291 26.9001 6.7923 24.2009 6.7923 24.2009C6.05567 22.4528 4.99431 21.988 4.99431 21.988C3.52509 21.0494 5.10506 21.0687 5.10506 21.0687C6.73116 21.1753 7.58738 22.6271 7.58738 22.6271C9.03167 24.9392 11.3756 24.2707 12.2997 23.8843C12.445 22.9069 12.8647 22.2397 13.3278 21.862C9.73102 21.4796 5.95002 20.1829 5.95002 14.388C5.95002 12.7368 6.5826 11.3877 7.61849 10.3286C7.45035 9.94773 6.89607 8.40954 7.77536 6.3264C7.77536 6.3264 9.13517 5.91994 12.2297 7.87661C13.5214 7.54152 14.9067 7.37348 16.2829 7.36772C17.659 7.37348 19.0454 7.54152 20.3395 7.87661C23.4303 5.91994 24.7882 6.3264 24.7882 6.3264C25.6697 8.40954 25.1151 9.94773 24.947 10.3286C25.9853 11.3877 26.6136 12.7368 26.6136 14.388C26.6136 20.1966 22.8253 21.4756 19.2194 21.85C19.8003 22.3193 20.3178 23.2397 20.3178 24.6507C20.3178 26.6742 20.299 28.3028 20.299 28.8009C20.299 29.2034 20.5905 29.6749 21.4113 29.5264C27.842 27.5244 32.476 21.8575 32.476 15.1779C32.476 6.82527 25.2259 0.0544434 16.2829 0.0544434" fill="#161514"/>
<path fill-rule="evenodd" clip-rule="evenodd" d="M4.96131 21.6646C4.92571 21.739 4.79938 21.7613 4.68428 21.7102C4.56705 21.6614 4.50121 21.56 4.53921 21.4853C4.57401 21.4087 4.70061 21.3874 4.81758 21.4387C4.93508 21.4876 5.00199 21.59 4.96131 21.6646" fill="#161514"/>
<path fill-rule="evenodd" clip-rule="evenodd" d="M5.61602 22.3411C5.53893 22.4073 5.38824 22.3766 5.286 22.2719C5.18027 22.1675 5.16047 22.0279 5.23862 21.9607C5.31812 21.8945 5.46426 21.9255 5.57025 22.0299C5.67597 22.1355 5.69658 22.2742 5.61602 22.3411" fill="#161514"/>
<path fill-rule="evenodd" clip-rule="evenodd" d="M6.25329 23.2036C6.15425 23.2673 5.99232 23.2075 5.89222 23.0744C5.79318 22.9412 5.79318 22.7815 5.89436 22.7175C5.99473 22.6536 6.15425 22.7111 6.25569 22.8433C6.35446 22.9786 6.35446 23.1383 6.25329 23.2036" fill="#161514"/>
<path fill-rule="evenodd" clip-rule="evenodd" d="M7.12639 24.0367C7.03779 24.1272 6.8491 24.1029 6.71098 23.9794C6.56966 23.8587 6.53032 23.6873 6.61918 23.5968C6.70884 23.5061 6.89861 23.5316 7.03779 23.6541C7.17805 23.7746 7.22087 23.9472 7.12639 24.0367" fill="#161514"/>
<path fill-rule="evenodd" clip-rule="evenodd" d="M8.33085 24.5205C8.29177 24.6378 8.11003 24.6911 7.92695 24.6412C7.74414 24.5899 7.6245 24.4525 7.66144 24.334C7.69944 24.216 7.88199 24.1604 8.0664 24.2137C8.24894 24.2648 8.36885 24.4012 8.33085 24.5205" fill="#161514"/>
<path fill-rule="evenodd" clip-rule="evenodd" d="M9.65362 24.6103C9.65817 24.7338 9.50292 24.8362 9.31075 24.8384C9.1175 24.8424 8.96119 24.7424 8.95905 24.6209C8.95905 24.4962 9.11081 24.3948 9.30406 24.3918C9.49623 24.3883 9.65362 24.4875 9.65362 24.6103" fill="#161514"/>
<path fill-rule="evenodd" clip-rule="evenodd" d="M10.8846 24.4161C10.9076 24.5366 10.774 24.6603 10.5832 24.6933C10.3955 24.7251 10.2218 24.6507 10.198 24.5311C10.1747 24.4077 10.3107 24.2839 10.4981 24.2519C10.6892 24.2212 10.8602 24.2936 10.8846 24.4161" fill="#161514"/>
</svg>
